/* XPM */
static char *_4e14a3d460b4fd7f793accc4cc440a6[] = {
/* columns rows colors chars-per-pixel */
"16 16 2 1 ",
"  c #795447",
". c None",
/* pixels */
".......  .......",
"......    ......",
"......    ......",
"....  ....  ....",
"... . .  . . ...",
"...  .    .  ...",
".  .. ...  ..  .",
"   .  .     .   ",
"   .  .  .  .   ",
".  ..  ... ..  .",
"...  .    .  ...",
"... . .  . . ...",
"....  ....  ....",
"......    ......",
"......    ......",
".......  ......."
};
