/* XPM */
static char *_b67383887e84bdbfbe01ed862914b25[] = {
/* columns rows colors chars-per-pixel */
"64 64 2 1 ",
"  c #795447",
". c None",
/* pixels */
"................................................................",
"..............................    ..............................",
".............................      .............................",
"............................        ............................",
"...........................          ...........................",
"..........................            ..........................",
".........................              .........................",
"........................                ........................",
".......................                  .......................",
"......................                    ......................",
".......................                  .......................",
"........................      ....      ........................",
"...................  ....    ......    ....  ...................",
"..................    ....  ........  ....    ..................",
".................      ..................      .................",
".................       ......    ......       .................",
"..................       ....      ....       ..................",
"..............  ...     ....        ....     ...  ..............",
".............    ...   ....          ....   ...    .............",
"............      ... ....            .... ...      ............",
"............       ......              ......       ............",
".............       ....                ....       .............",
"......... ....     ....                  ....     .... .........",
"........   ....   ....        ......      ....   ....   ........",
".......     .... ....      ............    .... ....     .......",
"......       .......      .............     .......       ......",
".....         .....      ......     ..       .....         .....",
"....          ....      .....                 ....          ....",
"...          ....      .....                   ....          ...",
"..          ....       .....                    ....          ..",
".          ....        ....                      ....          .",
".          ....        ....        ....          ....          .",
".          ....        ....        ....          ....          .",
".          ....        .....       ....          ....          .",
"..          ....       .....       ....         ....          ..",
"...          ....       .....      ....        ....          ...",
"....          ....      .......    ....       ....          ....",
".....         .....      ..............      .....         .....",
"......       .......       ............     .......       ......",
".......     .... ....         .......      .... ....     .......",
"........   ....   ....                    ....   ....   ........",
"......... ....     ....                  ....     .... .........",
".............       ....                ....       .............",
"............       ......              ......       ............",
"............      ... ....            .... ...      ............",
".............    ...   ....          ....   ...    .............",
"..............  ...     ....        ....     ...  ..............",
"..................       ....      ....       ..................",
".................       ......    ......       .................",
".................      ..................      .................",
"..................    ....  ........  ....    ..................",
"...................  ....    ......    ....  ...................",
"........................      ....      ........................",
".......................                  .......................",
"......................                    ......................",
".......................                  .......................",
"........................                ........................",
".........................              .........................",
"..........................            ..........................",
"...........................          ...........................",
"............................        ............................",
".............................      .............................",
"..............................    ..............................",
"................................................................"
};
