/* XPM */
static char *_f9f5d7e7b934135d80152c6d7f7f780[] = {
/* columns rows colors chars-per-pixel */
"32 32 2 1 ",
"  c #795447",
". c None",
/* pixels */
"...............  ...............",
"..............    ..............",
".............      .............",
"............        ............",
"...........          ...........",
"............    .   ............",
".........  .. .... ..  .........",
"........    ...  ...    ........",
".........   ..    ..   .........",
"......   . ..      .. .   ......",
"......    ..        ..    ......",
".... ..  ..          ..  .. ....",
"...   ....   ......   ....   ...",
"..     ..   ...        ..     ..",
".     ..    ..          ..     .",
"      .    ...           .      ",
"      .    ...    ..     .      ",
".     ..    ..    ..    ..     .",
"..     ..   ........   ..     ..",
"...   ....    .....   ....   ...",
".... ..  ..          ..  .. ....",
"......    ..        ..    ......",
"......   . ..      .. .   ......",
"....... .   ..    ..   . .......",
"........    ...  ...    ........",
".........  .. .... ..  .........",
"............    .   ............",
"...........          ...........",
"............        ............",
".............      .............",
"..............    ..............",
"...............  ..............."
};
