/* XPM */
static char *d4bc818576534c1d9ce73e41e967f604[] = {
/* columns rows colors chars-per-pixel */
"128 128 2 1 ",
"  c #795447",
". c None",
/* pixels */
"................................................................................................................................",
"..............................................................     .............................................................",
".............................................................       ............................................................",
"............................................................         ...........................................................",
"...........................................................           ..........................................................",
"..........................................................             .........................................................",
".........................................................               ........................................................",
"........................................................                 .......................................................",
".......................................................                   ......................................................",
"......................................................                     .....................................................",
".....................................................                       ....................................................",
"....................................................                         ...................................................",
"...................................................                           ..................................................",
"..................................................                             .................................................",
".................................................                               ................................................",
"................................................                                 ...............................................",
"...............................................                                   ..............................................",
"..............................................                                     .............................................",
".............................................                                       ............................................",
"............................................                                         ...........................................",
".............................................                                       ............................................",
"..............................................                                     .............................................",
"...............................................                ....               ..............................................",
"........................................ .......             .......             ....... .......................................",
".......................................   .......           .........           .......   ......................................",
"......................................     .......         ...........         .......     .....................................",
".....................................       .......       .............       .......       ....................................",
"....................................         .......     ...............     .......         ...................................",
"...................................           .......   .................   .......           ..................................",
"..................................             ...................................             .................................",
"..................................              ..............     ..............              .................................",
"...................................              ............       ............              ..................................",
"....................................              ..........         ..........              ...................................",
".....................................             .........           .........             ....................................",
".............................  .......            ........             ........            .......  ............................",
"............................    .......          ........               ........          .......    ...........................",
"...........................      .......        ........                 ........        .......      ..........................",
"..........................        .......      ........                   ........      .......        .........................",
".........................          .......    ........                     ........    .......          ........................",
"........................            .......  ........                       ........  .......            .......................",
".......................              ...............                         ...............              ......................",
"........................              .............                           .............              .......................",
".........................              ...........                             ...........              ........................",
"..........................              .........                               .........              .........................",
"................... .......             ........                                 ........             ....... ..................",
"..................   .......           ........                                   ........           .......   .................",
".................     .......         ........                                     ........         .......     ................",
"................       .......       ........               ..............          ........       .......       ...............",
"...............         .......     ........             .....................       ........     .......         ..............",
"..............           .......   ........           .........................       ........   .......           .............",
".............             ................           .........................         ................             ............",
"............               ..............          ...........................          ..............               ...........",
"...........                 ............          ...........................            ............                 ..........",
"..........                   ..........          .............           ....             ..........                   .........",
".........                    .........           ..........                                .........                    ........",
"........                     ........           ..........                                  ........                     .......",
".......                     ........            .........                                    ........                     ......",
"......                     ........            ..........                                     ........                     .....",
".....                     ........             .........                                       ........                     ....",
"....                     ........              .........                                        ........                     ...",
"...                     ........              ..........                                         ........                     ..",
"..                     ........               .........                                           ........                     .",
".                      .......                .........                                            .......                      ",
".                     ........                .........                ........                    ........                     ",
".                     ........                .........                ........                    ........                     ",
".                     ........                .........                ........                    ........                     ",
".                      .......                ..........               ........                    .......                      ",
"..                     ........               ..........               ........                   ........                     .",
"...                     ........               .........               ........                  ........                     ..",
"....                     ........              ..........              ........                 ........                     ...",
".....                     ........             ...........             ........                ........                     ....",
"......                     ........             ...........            ........               ........                     .....",
".......                     ........             ...........           ........              ........                     ......",
"........                     ........            ..............       .........             ........                     .......",
".........                    .........            .............................            .........                    ........",
"..........                   ..........            ............................           ..........                   .........",
"...........                 ............            ...........................          ............                 ..........",
"............               ..............             .........................         ..............               ...........",
".............             ................              .......................        ................             ............",
"..............           .......   ........                ................           ........   .......           .............",
"...............         .......     ........                                         ........     .......         ..............",
"................       .......       ........                                       ........       .......       ...............",
".................     .......         ........                                     ........         .......     ................",
"..................   .......           ........                                   ........           .......   .................",
"................... .......             ........                                 ........             ....... ..................",
"..........................              .........                               .........              .........................",
".........................              ...........                             ...........              ........................",
"........................              .............                           .............              .......................",
".......................              ...............                         ...............              ......................",
"........................            .......  ........                       ........  .......            .......................",
".........................          .......    ........                     ........    .......          ........................",
"..........................        .......      ........                   ........      .......        .........................",
"...........................      .......        ........                 ........        .......      ..........................",
"............................    .......          ........               ........          .......    ...........................",
".............................  .......            ........             ........            .......  ............................",
".....................................             .........           .........             ....................................",
"....................................              ..........         ...........             ...................................",
"...................................              ............       .............             ..................................",
"..................................              ..............     ...............             .................................",
"..................................             ....................................            .................................",
"...................................           .......   .................   ........          ..................................",
"....................................         .......     ...............     ........        ...................................",
".....................................       .......       .............       ........      ....................................",
"......................................     .......         ...........         ........    .....................................",
".......................................   .......           .........           ........  ......................................",
"........................................ .......             .......             ...............................................",
"...............................................                ....               ..............................................",
"..............................................                                     .............................................",
".............................................                                       ............................................",
"............................................                                         ...........................................",
".............................................                                       ............................................",
"..............................................                                     .............................................",
"...............................................                                   ..............................................",
"................................................                                 ...............................................",
".................................................                               ................................................",
"..................................................                             .................................................",
"...................................................                           ..................................................",
"....................................................                         ...................................................",
".....................................................                       ....................................................",
"......................................................                     .....................................................",
".......................................................                   ......................................................",
"........................................................                 .......................................................",
".........................................................               ........................................................",
"..........................................................             .........................................................",
"...........................................................           ..........................................................",
"............................................................         ...........................................................",
".............................................................       ............................................................",
"..............................................................     ............................................................."
};
