<?xml version="1.0" encoding="utf-8"?>
<!-- Generator: Adobe Illustrator 23.0.2, SVG Export Plug-In . SVG Version: 6.00 Build 0)  -->
<svg version="1.1"
	 id="svg3039" inkscape:export-filename="/home/orion/projects2/bitcoin/tx_mined.png" inkscape:export-xdpi="12" inkscape:export-ydpi="12" inkscape:version="0.48.0 r9654" sodipodi:docname="inout3.svg" xmlns:cc="http://creativecommons.org/ns#" xmlns:dc="http://purl.org/dc/elements/1.1/" xmlns:inkscape="http://www.inkscape.org/namespaces/inkscape" xmlns:rdf="http://www.w3.org/1999/02/22-rdf-syntax-ns#" xmlns:sodipodi="http://sodipodi.sourceforge.net/DTD/sodipodi-0.dtd" xmlns:svg="http://www.w3.org/2000/svg"
	 xmlns="http://www.w3.org/2000/svg" xmlns:xlink="http://www.w3.org/1999/xlink" x="0px" y="0px" viewBox="0 0 120 120"
	 style="enable-background:new 0 0 120 120;" xml:space="preserve">
<style type="text/css">
	.st0{display:none;}
	.st1{display:inline;fill:#AFAFAF;}
	.st2{display:inline;fill:#6E6E6E;}
	.st3{fill:#D5C6B6;}
	.st4{fill:none;}
	.st5{fill:#795548;}
</style>
<sodipodi:namedview  bordercolor="#666666" borderopacity="1" gridtolerance="10" guidetolerance="10" id="namedview3041" inkscape:current-layer="layer7" inkscape:cx="87.12655" inkscape:cy="67.287943" inkscape:pageopacity="0" inkscape:pageshadow="2" inkscape:window-height="1127" inkscape:window-maximized="1" inkscape:window-width="1920" inkscape:window-x="0" inkscape:window-y="25" inkscape:zoom="1" objecttolerance="10" pagecolor="#ffffff" showgrid="false">
	</sodipodi:namedview>
<g id="layer2" inkscape:groupmode="layer" inkscape:label="base" class="st0">
	<path id="path3053" inkscape:connector-curvature="0" sodipodi:nodetypes="cccccccccccccc" class="st1" d="M45.4,17
		c-14,0.2-25,3.3-37.4,9.6c-9,21.9-6.7,46.4-2,69c26.2,13.2,55.6,13,81.8-0.2c3.9-9.7,1.6-12.8,2.4-23.2c-6.2,0.2-13-4.5-15.9,3
		c-1.5,4.5,1.9,7.4-5,8.1c-16.1,5.2-31.4,5.8-47.3-1.1c-2.2-13.9-3.3-28.6,0.6-42.3c16.9-6.6,33.1-6.1,50-0.2
		c1.3,5.9,1.6,5.8,2.4,11.7c5.6,0.4,14.7,1.8,16.4-5.5c0.5-10-1.9-14.4-4.1-20.3C73.7,21,59.8,16.7,45.4,17z"/>
</g>
<g id="layer3" inkscape:groupmode="layer" inkscape:label="arrow_out" class="st0">
	<path id="path3844" inkscape:connector-curvature="0" sodipodi:nodetypes="cccccscccc" class="st2" d="M64,65.5l0.3-9.5l36.2-0.2
		L93,47l3.8-7.6c0,0,23.4,20.8,22.5,21.2S96.1,83.4,96.1,83.4L93,74.4l7.5-8.6L64,65.5z"/>
</g>
<g id="layer4" inkscape:groupmode="layer" inkscape:label="arrow_in" class="st0">
	<path id="path4080" inkscape:connector-curvature="0" sodipodi:nodetypes="cccccscccc" class="st2" d="M99.3,65.5L99,56l-36.2-0.2
		l7.8-6.3l-4.2-9.3c0,0-23.4,20-22.5,20.4s23.2,21,23.2,21l3.5-9.6l-7.9-6.1L99.3,65.5z"/>
</g>
<g>
	<g>
		<g>
			<path class="st3" d="M110.2,114.6H9.5c-2.2,0-4-1.8-4-4V9.9c0-2.2,1.8-4,4-4h100.7c2.2,0,4,1.8,4,4v100.7
				C114.2,112.8,112.4,114.6,110.2,114.6z"/>
			<rect x="0.1" y="0.4" class="st4" width="119.6" height="119.6"/>
		</g>
	</g>
</g>
<g>
	<path class="st5" d="M101.1,52.2c-0.6,0.7-1.1,1.6-1.8,2.2c-6.5,6.5-12.9,12.9-19.4,19.4c-0.7,0.7-1.5,1.2-2.6,1.1
		c-1.6-0.1-2.7-1.3-2.7-2.9c0-2.6,0-5.2,0-7.8c0-0.3,0-0.6,0-1c-0.4,0-0.8,0-1.1,0c-10.2,0-20.5,0-30.7,0c-2.4,0-3.5-1.1-3.5-3.5
		c0-1.3,0-2.6,0-3.7c-4.4,4.4-8.8,8.8-13.2,13.2c4.3,4.3,8.7,8.7,13.2,13.1c0-1.3,0-2.7,0-4.1c0-2,1.2-3.2,3.2-3.2
		c7.7,0,15.4,0,23.1,0c1.9,0,3.1,1.2,3.1,2.9c0,1.7-1.3,3-3.2,3c-6.4,0-12.8,0-19.2,0c-0.3,0-0.7,0-1.1,0c0,0.4,0,0.7,0,1
		c0,2.5,0,5,0,7.5c0,1.4-0.5,2.4-1.8,3c-1.2,0.5-2.4,0.2-3.4-0.9c-6.7-6.7-13.4-13.4-20.1-20.1c-1.5-1.5-1.5-3.1,0-4.6
		C26.5,60,33.3,53.3,40,46.6c1-1,2.1-1.3,3.4-0.8c1.2,0.5,1.8,1.5,1.8,3c0,2.5,0,5,0,7.5c0,0.3,0,0.6,0,1c0.4,0,0.8,0,1.1,0
		c10.2,0,20.5,0,30.7,0c2.4,0,3.5,1.1,3.5,3.5c0,1.3,0,2.6,0,3.7c4.4-4.4,8.8-8.8,13.1-13.1c-4.3-4.3-8.7-8.7-13.1-13.1
		c0,1.3,0,2.6,0,4c0,2.2-1.1,3.3-3.3,3.3c-7.7,0-15.3,0-23,0c-1.9,0-3.2-1.2-3.1-3c0-1.7,1.3-2.9,3.2-2.9c6.4,0,12.7,0,19.1,0
		c0.4,0,0.7,0,1.2,0c0-0.3,0-0.6,0-1c0-2.5,0-5,0-7.5c0-1.4,0.5-2.5,1.8-3c1.3-0.5,2.4-0.2,3.4,0.8c6.7,6.7,13.5,13.5,20.2,20.2
		c0.4,0.4,0.7,1.1,1.1,1.6C101.1,51.2,101.1,51.7,101.1,52.2z"/>
</g>
</svg>
