<?xml version="1.0" encoding="utf-8"?>
<!-- Generator: Adobe Illustrator 23.0.2, SVG Export Plug-In . SVG Version: 6.00 Build 0)  -->
<svg version="1.1"
	 id="svg2993" inkscape:export-filename="/store/orion/projects/bitcoin/questionmark.png" inkscape:export-xdpi="90" inkscape:export-ydpi="90" inkscape:version="0.48.0 r9654" sodipodi:docname="questionmark.svg" xmlns:cc="http://creativecommons.org/ns#" xmlns:dc="http://purl.org/dc/elements/1.1/" xmlns:inkscape="http://www.inkscape.org/namespaces/inkscape" xmlns:rdf="http://www.w3.org/1999/02/22-rdf-syntax-ns#" xmlns:sodipodi="http://sodipodi.sourceforge.net/DTD/sodipodi-0.dtd" xmlns:svg="http://www.w3.org/2000/svg"
	 xmlns="http://www.w3.org/2000/svg" xmlns:xlink="http://www.w3.org/1999/xlink" x="0px" y="0px" viewBox="0 0 16 16"
	 style="enable-background:new 0 0 16 16;" xml:space="preserve">
<style type="text/css">
	.st0{fill:#795548;}
</style>
<sodipodi:namedview  bordercolor="#666666" borderopacity="1.0" id="base" inkscape:current-layer="layer2" inkscape:cx="10.789648" inkscape:cy="7.6382159" inkscape:document-units="px" inkscape:grid-bbox="true" inkscape:pageopacity="0.0" inkscape:pageshadow="2" inkscape:window-height="1127" inkscape:window-maximized="1" inkscape:window-width="1920" inkscape:window-x="0" inkscape:window-y="25" inkscape:zoom="1" pagecolor="#ffffff" showgrid="true">
	</sodipodi:namedview>
<g>
	<path class="st0" d="M7.8,1.1c2.4,0,4.7,1.1,4.7,3.7c0,2.4-2.8,3.3-3.4,4.2c-0.4,0.6-0.3,1.6-1.5,1.6c-0.8,0-1.2-0.6-1.2-1.2
		c0-2.2,3.2-2.7,3.2-4.5c0-1-0.7-1.6-1.8-1.6c-2.4,0-1.4,2.4-3.2,2.4C4,5.7,3.5,5.3,3.5,4.6C3.5,2.7,5.6,1.1,7.8,1.1z M7.7,11.8
		c0.8,0,1.5,0.7,1.5,1.5s-0.7,1.5-1.5,1.5s-1.5-0.7-1.5-1.5C6.2,12.5,6.9,11.8,7.7,11.8z"/>
</g>
</svg>
